<svg width="80" height="66" viewBox="0 0 80 66" fill="none" xmlns="http://www.w3.org/2000/svg">
<g clip-path="url(#clip0_373_241)">
<path d="M23.9861 5.80906C24.0746 5.76896 24.163 5.72674 24.2599 5.68241C24.243 5.53254 24.243 5.53254 24.0914 5.41434C23.9967 5.45022 23.9019 5.48821 23.784 5.53254C23.7187 5.26869 23.9924 5.02805 23.7735 4.77686C23.8766 4.7262 23.9567 4.68609 24.0514 4.63965C24.0156 4.6101 23.9967 4.5911 23.9735 4.57844C23.8156 4.48767 23.7482 4.36946 23.8219 4.23226C23.8598 4.16049 23.9735 4.12883 24.0704 4.06761C23.9988 4.02117 23.9209 3.97051 23.8556 3.92619C23.8914 3.72565 23.923 3.54623 23.9609 3.33515C23.9988 3.31615 24.064 3.2866 24.1398 3.25282C24.0998 3.17261 24.0577 3.09029 24.0135 3.00163C24.064 2.92353 24.1125 2.84754 24.1777 2.74622C24.1146 2.72089 24.0661 2.69978 24.0009 2.67234C24.0135 2.43381 24.024 2.18895 24.1904 2.00531C24.1714 1.89132 24.1209 1.77523 24.1504 1.68868C24.1777 1.60847 24.2915 1.55781 24.3652 1.49448C24.3167 1.41849 24.2514 1.35728 24.2472 1.29395C24.243 1.23485 24.2915 1.14408 24.3441 1.11453C24.4768 1.03854 24.4852 0.93933 24.4789 0.800014C24.4704 0.584707 24.5715 0.426393 24.7463 0.274412C25.0327 0.0232206 25.3759 0.0506617 25.7044 1.26927e-06C25.7718 -0.010553 25.9002 0.0949896 25.9276 0.173091C25.9739 0.306075 25.9866 0.460167 25.9697 0.601594C25.9192 1.01532 25.9929 1.4206 26.0118 1.83011C26.0181 1.97365 26.0245 2.11719 26.0329 2.26072C26.0497 2.58791 26.0455 2.9172 26.1529 3.23383C26.1592 3.25282 26.1655 3.27604 26.1634 3.29504C26.0771 3.7531 26.2582 4.17949 26.3235 4.61854C26.4266 5.33201 26.4772 6.0497 26.6498 6.75473C26.833 7.50619 26.9341 8.27876 27.0963 9.03656C27.191 9.47984 27.3405 9.91045 27.4458 10.3495C27.5006 10.5754 27.5048 10.8118 27.5406 11.0419C27.5553 11.1432 27.5743 11.2508 27.6248 11.3353C27.8164 11.6498 27.8038 12.015 27.9027 12.3527C28.0165 12.7369 28.0944 13.1316 28.1765 13.5263C28.2186 13.7248 28.2544 13.9274 28.2628 14.13C28.2818 14.548 28.347 14.9575 28.4271 15.3649C28.5134 15.8103 28.6145 16.2536 28.7387 16.6905C28.8377 17.0325 28.9851 17.3596 29.103 17.6974C29.1683 17.8874 29.2883 18.0436 29.3852 18.2145C29.4799 18.3834 29.5747 18.5544 29.6484 18.7338C29.7789 19.0462 29.8926 19.3671 30.019 19.6837C30.0506 19.766 30.1116 19.8357 30.1453 19.918C30.1664 19.9708 30.1643 20.0341 30.1559 20.0953C30.2001 20.1945 30.417 20.1924 30.3201 20.3908C30.318 20.395 30.3769 20.4288 30.4064 20.4499C30.4359 20.4732 30.4949 20.509 30.4907 20.5175C30.4106 20.7138 30.6149 20.775 30.6696 20.9038C30.7139 21.0072 30.8044 21.0959 30.8276 21.2035C30.8886 21.4716 31.0508 21.6595 31.2445 21.8347C31.2971 21.8811 31.3456 21.9381 31.3772 22.0014C31.5098 22.261 31.6341 22.527 31.7646 22.7888C31.7815 22.8204 31.813 22.8479 31.8404 22.8711C31.9267 22.9428 32.0152 23.0104 32.1015 23.0822C32.1331 23.1075 32.1605 23.1582 32.1921 23.1582C32.4532 23.1666 32.5585 23.3629 32.6764 23.5466C32.7101 23.5972 32.7353 23.6795 32.7817 23.6922C33.047 23.7703 33.1481 24.0257 33.3144 24.2009C33.5882 24.4901 33.8282 24.8152 34.0577 25.1402C34.2388 25.3957 34.481 25.5899 34.6873 25.8199C34.9063 26.0669 35.2432 26.2062 35.4896 26.4342C35.816 26.736 36.2413 26.8057 36.6119 26.9978C37.1426 27.2743 37.728 27.3735 38.2776 27.5846C38.6082 27.7134 38.9598 27.7978 39.3009 27.8822C39.68 27.9772 40.0548 28.1693 40.4696 28.0954C40.5559 28.0807 40.6528 28.1187 40.7433 28.1355C40.9034 28.163 41.0634 28.1841 41.2234 28.2179C41.5035 28.277 41.7793 28.3572 42.0615 28.4036C42.4237 28.4648 42.7796 28.5936 43.1607 28.5155C43.3165 28.4838 43.4892 28.5028 43.6513 28.5197C44.2746 28.583 44.8958 28.6675 45.5212 28.716C45.7507 28.735 45.9865 28.6738 46.2203 28.6611C46.3403 28.6548 46.4603 28.678 46.5825 28.6865C46.6646 28.6907 46.753 28.7139 46.8267 28.6886C47.1363 28.5809 47.4437 28.6168 47.7532 28.6738C47.8375 28.6886 47.9112 28.7202 47.9722 28.6274C47.9933 28.5957 48.0375 28.5683 48.0733 28.564C48.5724 28.4838 49.0103 28.2453 49.4673 28.049C50.0421 27.7999 50.6317 27.5867 51.2361 27.4073C51.6319 27.2891 52.0299 27.1371 52.4174 26.9661C52.6953 26.8437 52.9691 26.6917 53.266 26.6052C53.4723 26.5461 53.6218 26.3434 53.8598 26.3709C53.8766 26.373 53.9061 26.354 53.9103 26.3392C53.9924 26.088 54.2451 26.088 54.4241 25.9825C54.4936 25.9403 54.5673 25.9002 54.6326 25.8537C54.7737 25.7524 54.9063 25.6405 55.0516 25.5434C55.1569 25.4716 55.2664 25.4062 55.2748 25.2627C55.2917 24.9292 55.4854 24.7117 55.7297 24.5175C55.9571 24.3381 56.1761 24.1481 56.4035 23.9687C56.5045 23.8885 56.6162 23.8252 56.7404 23.7407C56.7404 23.5402 56.8141 23.3376 56.9573 23.1455C57.4879 22.432 58.0396 21.7291 58.406 20.9122C58.5113 20.6758 58.6797 20.4499 58.6524 20.165C58.6503 20.1354 58.6587 20.1038 58.6713 20.0742C58.924 19.5 59.0819 18.8921 59.2651 18.2948C59.3957 17.8726 59.5241 17.4441 59.6273 17.0092C59.701 16.6926 59.7663 16.3781 59.8231 16.0594C59.8674 15.8187 59.9726 15.5823 60.0105 15.3311C60.0569 15.025 60.0379 14.6936 60.278 14.4446C60.1601 14.2525 60.3601 14.0836 60.3201 13.8957C60.3075 13.8387 60.299 13.7585 60.3285 13.7205C60.438 13.577 60.4127 13.4187 60.4317 13.2561C60.4738 12.9121 60.5749 12.5743 60.6486 12.2345C60.6675 12.1458 60.676 12.053 60.6991 11.9643C60.8149 11.5295 60.9497 11.0989 60.9729 10.6408C60.9813 10.4952 61.0634 10.3432 61.1392 10.2123C61.2592 10.0097 61.1539 9.78802 61.2276 9.58116C61.3245 9.30886 61.3919 9.026 61.4593 8.74315C61.493 8.60805 61.5309 8.46029 61.5098 8.32942C61.4551 7.99802 61.6067 7.7025 61.6362 7.38798C61.6425 7.32888 61.6488 7.26766 61.6425 7.20856C61.6214 6.92148 61.6783 6.64285 61.7309 6.36633C61.7478 6.27134 61.8215 6.18902 61.8678 6.10036C61.853 6.08136 61.8383 6.06237 61.8236 6.04337C62.0194 5.9906 62.2131 5.92938 62.4111 5.88506C62.5458 5.8555 62.6806 5.98215 62.6911 6.1468C62.7122 6.51831 62.7817 6.88771 62.689 7.26766C62.6322 7.49986 62.6574 7.75738 62.6743 8.00224C62.6953 8.29143 62.6322 8.59117 62.7627 8.8698C62.6027 9.17165 62.7922 9.47772 62.7501 9.79224C62.7059 10.1258 62.8238 10.4825 62.8743 10.8308C62.8848 10.9025 62.8954 10.9743 62.9143 11.044C62.9564 11.1875 63.0028 11.3311 63.0575 11.5063C63.0491 11.5189 63.0112 11.5717 62.9606 11.6456C63.0428 11.6793 63.1038 11.7026 63.1586 11.7258C62.9649 12.0741 63.2744 12.4055 63.1775 12.7517C63.1502 12.8488 63.2576 12.9796 63.2849 13.0999C63.3713 13.4503 63.4471 13.8007 63.5292 14.1512C63.5376 14.1913 63.5566 14.2293 63.5734 14.2672C63.7292 14.6388 63.8387 15.0208 63.8471 15.4282C64.0219 15.5654 63.9082 15.7828 63.9945 15.9623C64.0872 16.1543 64.0409 16.414 64.0577 16.661C64.0788 16.6652 64.1546 16.6631 64.1609 16.6842C64.2872 17.062 64.4452 17.4335 64.5147 17.8219C64.6052 18.3306 64.8937 18.7169 65.178 19.118C65.2411 19.2066 65.2853 19.3101 65.338 19.4072C65.4728 19.6626 65.6349 19.8884 65.9086 20.0193C65.9823 20.0552 66.0118 20.1713 66.0792 20.2304C66.2371 20.3697 66.3887 20.509 66.5888 20.6104C66.852 20.7433 67.0794 20.946 67.3216 21.1191C67.3616 21.1486 67.4016 21.2098 67.4395 21.2077C67.7238 21.193 67.9006 21.4188 68.1365 21.5138C68.1659 21.5244 68.1933 21.5539 68.2207 21.5539C68.6439 21.5434 68.9282 21.8748 69.3009 21.9845C69.5494 22.0563 69.7895 22.1618 70.0442 22.204C70.3601 22.2568 70.6823 22.2779 71.0002 22.3138C71.0213 22.3159 71.0508 22.3075 71.0613 22.318C71.2677 22.5355 71.573 22.4215 71.7983 22.5312C72.0678 22.6642 72.3268 22.7318 72.6237 22.6895C72.6637 22.6832 72.7143 22.736 72.7585 22.7613C72.8027 22.7866 72.8596 22.8436 72.8912 22.831C73.1691 22.7339 73.386 22.9344 73.6345 22.9745C73.8893 23.0167 74.1335 23.1033 74.3862 23.1624C74.622 23.2173 74.8621 23.2489 75.0958 23.308C75.319 23.365 75.5338 23.4516 75.757 23.5149C76.115 23.6141 76.4709 23.7196 76.8351 23.7893C77.0899 23.8378 77.3679 23.7893 77.6121 23.8632C77.8711 23.9392 78.1344 23.9265 78.3892 23.9898C78.7071 24.0679 79.0314 24.1207 79.343 24.2136C79.5241 24.2685 79.6863 24.3824 79.8463 24.4627C79.8126 24.8278 79.8126 24.8278 80.0042 24.9376C79.9748 25.1234 79.9642 25.3154 79.9095 25.4928C79.8842 25.5751 79.7852 25.6595 79.6989 25.6933C79.4336 25.7967 79.1914 25.9698 78.8819 25.9508C78.7998 25.9445 78.7008 26.0205 78.6271 26.0796C78.4502 26.221 78.2333 26.1387 78.0375 26.1957C77.5153 26.3477 77.0289 26.5777 76.5256 26.7762C76.433 26.812 76.3256 26.8099 76.2266 26.8247C76.1866 26.831 76.1424 26.8268 76.1066 26.8416C75.7591 26.9978 75.4012 27.1371 75.0685 27.3208C74.9253 27.401 74.7126 27.439 74.6726 27.6627C74.6663 27.6923 74.5905 27.7239 74.5441 27.7303C74.0535 27.802 73.6113 27.9983 73.1775 28.2263C73.0954 28.2706 72.9649 28.2854 72.9838 28.4353C72.9859 28.4543 72.9333 28.4965 72.8996 28.5028C72.5458 28.5662 72.3247 28.8765 71.992 28.9904C71.8573 29.0369 71.7688 29.2036 71.6425 29.2881C71.4824 29.3957 71.2971 29.4654 71.1329 29.5688C70.9918 29.6596 70.8739 29.7841 70.7328 29.8833C70.4422 30.0902 70.1895 30.3498 69.9221 30.5862C69.9284 30.8163 69.6631 30.8037 69.581 30.9767C69.4989 31.1477 69.3304 31.2765 69.1956 31.42C69.0693 31.5572 68.9366 31.6902 68.8145 31.8295C68.6861 31.9752 68.5639 32.1272 68.4355 32.2728C68.2523 32.4818 68.0691 32.6908 67.8775 32.8913C67.5616 33.2206 67.2752 33.5668 67.111 33.9995C67.0668 34.1177 66.9889 34.2232 66.9194 34.333C66.7467 34.6032 66.6941 34.905 66.6498 35.2174C66.6267 35.3821 66.6288 35.5805 66.4393 35.6818C66.414 35.6945 66.4098 35.7557 66.4035 35.7937C66.3235 36.1779 66.2582 36.5642 66.1634 36.9441C66.0792 37.284 65.9529 37.6154 65.9739 37.9763C65.976 38.0059 65.9655 38.0418 65.9486 38.065C65.7676 38.331 65.7907 38.6434 65.7402 38.9389C65.6728 39.3315 65.5823 39.722 65.5086 40.1146C65.4601 40.3743 65.3296 40.6276 65.4349 40.9041C65.4475 40.9379 65.4348 40.9885 65.4201 41.0244C65.2853 41.3368 65.298 41.6745 65.2453 42.0017C65.1443 42.6455 65.1106 43.302 64.8937 43.9247C64.8684 44.0007 64.8768 44.0872 64.8747 44.1696C64.8726 44.2202 64.9021 44.292 64.8768 44.3194C64.6979 44.5326 64.8073 44.7986 64.7358 45.0329C64.6642 45.2672 64.6178 45.5121 64.5757 45.7548C64.4789 46.3121 64.3862 46.8715 64.3062 47.4329C64.2599 47.7601 64.2493 48.0915 64.2072 48.4208C64.1672 48.7375 64.123 49.0562 64.0514 49.3665C64.0261 49.4741 63.9145 49.5607 63.824 49.6789C63.6618 49.4171 63.4913 49.2103 63.4049 48.9274C63.3081 48.6108 63.3713 48.2731 63.2239 47.9691C63.1438 47.8045 63.1038 47.6187 63.0491 47.4414C63.0154 47.3337 62.988 47.224 62.9585 47.1163C62.9312 47.0192 62.908 46.92 62.8806 46.8229C62.8638 46.7659 62.8385 46.711 62.828 46.6519C62.8027 46.5126 62.8322 46.3395 62.7564 46.2424C62.569 45.9976 62.6427 45.7063 62.5627 45.4487C62.5332 45.3559 62.5206 45.2545 62.4932 45.1617C62.3016 44.5411 62.2342 43.9015 62.1689 43.2577C62.1331 42.9094 62.0299 42.5695 61.9731 42.2213C61.9099 41.8455 61.8846 41.4635 61.8067 41.0919C61.7435 40.7922 61.8004 40.4692 61.6172 40.1927C61.5688 40.121 61.554 40.0112 61.5582 39.9204C61.5751 39.6312 61.453 39.3716 61.3961 39.0993C61.3456 38.8608 61.3056 38.6201 61.2529 38.3837C61.2171 38.2191 61.1876 38.0565 61.0508 37.9236C60.9392 37.8138 60.8549 37.6618 60.8023 37.5119C60.697 37.2101 60.617 36.8998 60.5328 36.5895C60.5033 36.4797 60.577 36.4354 60.6696 36.4312C60.7223 36.427 60.777 36.4439 60.8402 36.4185C60.6149 36.37 60.3812 36.3489 60.2359 36.1146C60.2611 36.0048 60.3938 35.8317 60.1179 35.8C60.099 35.6396 59.8716 35.5995 59.9116 35.38C59.9305 35.2808 59.7705 35.1436 59.6842 35.0296C59.5157 34.8143 59.3367 34.6053 59.1725 34.3879C59.1388 34.3414 59.1472 34.2655 59.1325 34.1831C58.9914 34.1958 58.8461 34.0903 58.7745 33.9657C58.7029 33.8412 58.6103 33.761 58.5113 33.6702C58.3765 33.5478 58.2712 33.3916 58.1554 33.2586C57.9491 33.0201 57.6711 32.8449 57.4226 32.6422C57.3342 32.5726 57.2268 32.5198 57.1594 32.4332C57.0415 32.2791 56.812 32.2517 56.7404 32.0512C56.7362 32.0385 56.7046 32.0322 56.6856 32.028C56.5783 32.0068 56.4645 31.9477 56.4224 31.8802C56.2119 31.9541 55.9908 32.0153 55.7802 31.8612C55.5128 31.9773 55.2285 31.8401 54.9569 31.9161C54.8895 31.9351 54.801 31.9541 54.7442 31.9287C54.3462 31.7514 53.904 31.8295 53.4955 31.7113C53.3544 31.6712 53.1839 31.7493 53.0365 31.7219C52.3142 31.5931 51.5877 31.6564 50.8655 31.6501C50.5854 31.648 50.3075 31.7451 50.0253 31.781C49.7852 31.8126 49.541 31.8316 49.2967 31.838C49.1093 31.8422 48.9324 31.8401 48.7556 31.9393C48.6166 32.0174 48.4397 32.0301 48.2776 32.0617C48.1154 32.0934 47.9512 32.1082 47.7869 32.1335C47.6353 32.1588 47.4921 32.1926 47.3553 32.2855C47.2521 32.3551 47.1068 32.3594 46.9804 32.3952C46.5109 32.5324 46.0223 32.6211 45.597 32.885C45.5801 32.8955 45.5633 32.9124 45.5422 32.9166C44.9505 33.0095 44.4367 33.3747 43.8303 33.4169C43.7903 33.419 43.7524 33.4401 43.7145 33.457C43.1628 33.723 42.5585 33.8327 41.9878 34.0375C41.7667 34.1156 41.554 34.2211 41.3371 34.3077C41.2319 34.3499 41.1224 34.3794 40.9876 34.4238C40.9602 34.4934 40.9223 34.5863 40.8781 34.694C40.796 34.6665 40.7307 34.6433 40.6633 34.6201C40.6486 34.6327 40.6191 34.6496 40.6212 34.656C40.6739 34.7826 40.577 34.8375 40.497 34.8692C39.9916 35.0655 39.6442 35.4834 39.2209 35.7937C38.8187 36.0892 38.4397 36.4164 38.0649 36.7478C37.8143 36.9716 37.5932 37.2291 37.351 37.4634C37.2542 37.5563 37.1384 37.6302 37.0331 37.7167C36.972 37.7652 36.9152 37.8201 36.8604 37.875C36.8457 37.8877 36.8394 37.9257 36.8309 37.9257C36.4898 37.894 36.4035 38.274 36.1234 38.3668C35.9486 38.4238 35.8118 38.6201 35.6728 38.7658C35.4875 38.9579 35.3106 39.0254 35.0748 39.2154C34.9316 39.3294 34.6915 39.3653 34.6389 39.6017C34.6263 39.6587 34.5273 39.6882 34.4831 39.7431C34.4241 39.817 34.2451 39.8191 34.3315 39.9838C34.2178 40.0407 34.104 40.0977 33.9777 40.1611C33.944 40.2413 33.8935 40.3574 33.8472 40.4692C33.7713 40.465 33.7124 40.4629 33.6618 40.4587C33.6429 40.4882 33.6176 40.5094 33.6218 40.522C33.6576 40.6571 33.6555 40.7669 33.4934 40.8197C33.4281 40.8408 33.3544 40.883 33.4092 40.9822C33.4155 40.9927 33.4007 41.0307 33.3923 41.0328C33.1038 41.0603 33.0744 41.4044 32.8322 41.4909C32.8006 41.5036 32.7606 41.55 32.7585 41.5817C32.7417 41.892 32.4721 41.9553 32.2721 42.103C32.2721 42.2149 32.2721 42.3352 32.2721 42.464C32.1731 42.4788 32.0889 42.4809 32.011 42.5062C31.9583 42.5231 31.8699 42.5738 31.872 42.6033C31.891 42.8355 31.6783 42.9622 31.6383 43.1627C31.5983 43.1416 31.5582 43.1184 31.5225 43.0994C31.4972 43.1289 31.4761 43.1437 31.4719 43.1585C31.4488 43.2682 31.413 43.3801 31.413 43.492C31.4108 43.72 31.3729 43.9057 31.095 43.9247C31.0718 43.9268 31.0445 43.9564 31.0297 43.9796C30.8907 44.2202 30.7433 44.4566 30.6212 44.7057C30.5286 44.8915 30.4654 45.0941 30.3875 45.2925C30.3201 45.2757 30.2738 45.2651 30.1959 45.2461C30.1179 45.5416 30.0421 45.8371 29.9621 46.1432C29.8695 46.0567 29.7874 46.0377 29.7431 46.1622C29.7115 46.2488 29.7052 46.3459 29.6863 46.4366C29.6736 46.4978 29.6736 46.5971 29.6399 46.6118C29.4104 46.7174 29.4926 46.8989 29.5241 47.0741C29.4399 47.1269 29.362 47.1775 29.2715 47.2345C29.3072 47.6314 29.3051 48.0261 28.9851 48.3617C29.0356 48.3955 29.0819 48.425 29.162 48.4778C29.0735 48.5749 28.9851 48.672 28.884 48.7818C28.8966 48.8008 28.9261 48.843 28.9619 48.8937C28.8945 48.9443 28.8271 48.995 28.7366 49.0625C28.8187 49.0942 28.8735 49.1174 28.9409 49.1427C28.8672 49.5206 28.8166 49.9132 28.7113 50.291C28.625 50.6056 28.5913 50.937 28.4207 51.2261C28.3702 51.3127 28.4229 51.4161 28.3892 51.528C28.3113 51.7813 28.3155 52.0599 28.2733 52.3259C28.2312 52.5982 28.1744 52.8705 28.1259 53.1428C28.1112 53.2251 28.1049 53.3074 28.0965 53.3898C28.0923 53.4404 28.1112 53.5122 28.0859 53.5418C27.8564 53.8035 27.968 54.1623 27.8248 54.4515C27.7596 54.5845 27.7596 54.7513 27.7322 54.9054C27.7259 54.9349 27.7406 54.975 27.7259 54.9982C27.4437 55.4795 27.5174 56.0368 27.4184 56.556C27.3616 56.8558 27.2879 57.1555 27.2479 57.4595C27.1847 57.9387 27.1552 58.4242 27.0541 58.8949C26.9573 59.3508 26.9847 59.8321 26.7699 60.2669C26.7046 60.3978 26.6983 60.5709 26.7004 60.7229C26.7046 60.9952 26.6562 61.2506 26.5677 61.5081C26.5235 61.639 26.534 61.7889 26.5172 61.9303C26.4751 62.2955 26.4351 62.6627 26.3866 63.0279C26.3635 63.2116 26.3129 63.3931 26.2982 63.5789C26.275 63.8744 26.2729 64.1699 26.2603 64.4654C26.2582 64.5055 26.2456 64.5477 26.2329 64.5857C26.1045 64.9572 26.0329 65.333 26.0834 65.7298C26.0939 65.8142 26.0434 65.9071 26.0245 65.9873C25.8897 66.0253 25.8897 65.9156 25.837 65.8628C25.8034 65.829 25.7107 65.8501 25.6454 65.8459C25.6012 65.7003 25.5591 65.5652 25.5149 65.4153C25.4538 65.4491 25.4096 65.4723 25.3548 65.4997C25.2875 65.4132 25.1948 65.2401 25.1569 65.2506C24.9169 65.3245 24.8853 65.0543 24.7273 65.0163C24.5252 64.9678 24.5252 64.8095 24.5168 64.6491C24.5083 64.5203 24.4978 64.3894 24.4747 64.2628C24.4536 64.1446 24.3694 64.039 24.4304 63.9018C24.4494 63.8575 24.4094 63.7857 24.3988 63.7287C24.3862 63.6696 24.3631 63.6105 24.3631 63.5514C24.3652 63.0997 24.3273 62.6585 24.2051 62.2195C24.1377 61.983 24.1377 61.7276 24.1104 61.4786C24.0767 61.1725 24.0493 60.8643 24.0093 60.5582C23.9777 60.3176 23.9651 60.0727 23.8366 59.8511C23.7882 59.7688 23.8029 59.6506 23.7903 59.5471C23.7629 59.3339 23.744 59.1207 23.7082 58.9096C23.6682 58.6753 23.5587 58.4643 23.5692 58.2088C23.5776 57.9429 23.4934 57.6748 23.445 57.4088C23.3818 57.0521 23.3123 56.6933 23.4344 56.3344C23.4471 56.2964 23.4618 56.2436 23.4471 56.2141C23.3734 56.0684 23.2912 55.9249 23.2112 55.7814C23.2828 55.6442 23.3586 55.5006 23.466 55.298C23.3439 55.3254 23.2786 55.3402 23.2091 55.3571C23.2239 55.4584 23.2344 55.5344 23.2449 55.6062C23.2091 55.6209 23.1818 55.6399 23.1733 55.6357C23.1417 55.6125 23.0912 55.5829 23.0912 55.5555C23.0912 55.4141 23.0744 55.2621 23.1207 55.1333C23.1544 55.0426 23.1438 55.0257 23.0807 54.9687C23.0386 54.9307 23.0596 54.8294 23.0301 54.7682C23.0028 54.7091 22.9459 54.6626 22.9017 54.6098C22.9185 54.5339 22.9712 54.4367 22.9459 54.3713C22.868 54.1602 22.8554 54.1645 22.9438 53.9703C22.8701 53.8795 22.7627 53.8014 22.809 53.6346C22.8364 53.5333 22.7627 53.4024 22.7353 53.2842C22.6995 53.1238 22.5753 52.9803 22.6595 52.7966C22.6764 52.7607 22.6427 52.6995 22.6258 52.6531C22.4784 52.2562 22.4132 51.8425 22.3647 51.4246C22.3521 51.3127 22.3121 51.1945 22.2573 51.0953C22.0615 50.7554 22.1521 50.3354 21.9415 49.9997C21.9015 49.9343 21.9036 49.8393 21.8952 49.757C21.8636 49.4594 21.891 49.1406 21.7899 48.8683C21.6867 48.5939 21.7583 48.2942 21.5962 48.043C21.6467 48.0303 21.6846 48.0219 21.7267 48.0113C21.6677 47.9459 21.6088 47.8889 21.5625 47.8235C21.5288 47.777 21.4298 47.72 21.5583 47.6609C21.5625 47.6588 21.5351 47.5448 21.4972 47.5068C21.4677 47.4752 21.4003 47.4794 21.3245 47.4625C21.335 47.3169 21.1371 47.129 21.3982 46.9812C21.3435 46.9622 21.295 46.9453 21.2234 46.92C21.2908 46.8778 21.3477 46.8398 21.4172 46.7934C21.2887 46.7385 21.1834 46.692 21.055 46.6372C21.1371 46.5591 21.1876 46.5105 21.2361 46.4662C21.2192 46.4387 21.215 46.4155 21.2003 46.405C20.9792 46.2445 20.7433 46.0947 20.6802 45.7949C20.6675 45.7316 20.6275 45.6619 20.5791 45.6218C20.4928 45.5501 20.3748 45.5057 20.4233 45.358C20.2211 45.168 20.219 44.8788 20.0779 44.6635C20.0063 44.5516 19.9011 44.4693 19.8926 44.3173C19.8905 44.2688 19.8295 44.2181 19.7874 44.1759C19.5789 43.9775 19.3915 43.7643 19.1577 43.5828C18.7892 43.2978 18.4987 42.9094 18.1744 42.5674C18.1533 42.5442 18.1049 42.5273 18.107 42.5083C18.1112 42.2191 17.8164 42.1284 17.7111 41.9067C17.6564 41.7885 17.5048 41.7062 17.3826 41.6344C17.2437 41.5521 17.1152 41.4613 17.0647 41.3073C16.9994 41.1109 16.852 41.0054 16.6835 40.9315C16.4245 40.8175 16.2077 40.6571 16.0392 40.427C16.0097 40.3869 15.955 40.332 15.9213 40.3384C15.7718 40.3679 15.7065 40.2392 15.5991 40.1948C15.2622 40.0534 14.9969 39.8254 14.74 39.5785C14.7105 39.551 14.6726 39.5257 14.6347 39.5173C14.2894 39.4265 13.984 39.2597 13.6955 39.0571C13.6619 39.0339 13.6197 38.9959 13.5882 39.0001C13.3544 39.0402 13.2133 38.8566 13.028 38.7827C12.4848 38.561 11.9583 38.2908 11.3814 38.1536C11.2929 38.1325 11.2108 38.0798 11.1266 38.0418C11.036 38.0017 10.9497 37.9531 10.8571 37.9214C10.6654 37.8518 10.4696 37.7906 10.2759 37.7251C10.2464 37.7146 10.2232 37.6871 10.1938 37.6829C9.75998 37.6175 9.40411 37.3431 8.99561 37.227C8.74292 37.1552 8.52814 36.9863 8.24176 36.9863C8.08384 36.9863 7.92801 36.8491 7.76798 36.7795C7.6269 36.7183 7.48792 36.6317 7.34052 36.6148C6.87516 36.5663 6.4477 36.332 5.97392 36.3446C5.93391 36.3446 5.88969 36.3404 5.85179 36.3278C5.56962 36.2307 5.28746 36.1314 5.0074 36.0322C4.97792 36.0217 4.94844 35.9879 4.92528 35.9921C4.51256 36.085 4.13143 35.9288 3.74819 35.8296C3.45339 35.7536 3.13543 35.8 2.85326 35.6438C2.76693 35.5953 2.65111 35.6101 2.54794 35.5868C2.30578 35.5341 2.06783 35.4644 1.82357 35.4264C1.54141 35.3842 1.2803 35.2639 0.987607 35.2533C0.779142 35.2449 0.574888 35.1351 0.370635 35.0655C0.246398 35.0232 0.124267 34.9747 0.00634766 34.9325C0.061096 34.6729 0.107422 34.4407 0.157959 34.2085C0.183227 34.0924 0.261138 34.0396 0.368529 33.972C0.741239 33.7377 1.17712 33.7272 1.57089 33.5794C2.00045 33.419 2.45318 33.3177 2.89327 33.1826C3.06804 33.1298 3.21544 32.9947 3.4218 33.0327C3.48076 33.0433 3.55446 32.9799 3.61974 32.9504C3.67449 32.9251 3.73134 32.8681 3.78188 32.8744C4.12932 32.9061 4.4157 32.7266 4.72313 32.6169C4.84947 32.5704 4.99055 32.5662 5.119 32.5282C5.48539 32.4185 5.86653 32.3361 6.20555 32.1694C6.42665 32.0596 6.66459 32.0005 6.87937 31.8781C6.98887 31.8169 7.13837 31.8316 7.26682 31.8042C7.38474 31.7789 7.50266 31.7514 7.61637 31.7113C7.90485 31.61 8.19123 31.5002 8.43128 31.2997C8.77872 31.3377 8.97244 31.0105 9.2883 30.9493C9.81262 30.848 10.2211 30.4723 10.7118 30.2759C10.9771 30.1704 11.2213 30.0079 11.4635 29.8517C11.7393 29.6744 12.0405 29.5773 12.35 29.4886C12.6595 29.3978 12.9964 29.3261 13.2533 29.1488C13.5524 28.9419 13.8851 28.8659 14.2051 28.7329C14.2578 28.7118 14.2978 28.6569 14.3504 28.6295C14.4852 28.5577 14.6221 28.4944 14.7589 28.4268C15.0221 28.2981 15.3106 28.2136 15.5191 27.9878C15.5338 27.973 15.5465 27.9413 15.5591 27.9413C15.9276 27.9519 16.075 27.5656 16.3972 27.4833C16.374 27.439 16.334 27.3841 16.3424 27.3756C16.3993 27.3165 16.4582 27.23 16.5298 27.2173C16.8899 27.1519 17.071 26.8648 17.2984 26.6305C17.3616 26.5651 17.4269 26.4891 17.5069 26.4574C17.6753 26.3878 17.7975 26.2738 17.9196 26.1387C18.3913 25.6089 18.8735 25.0896 19.3557 24.5682C19.4989 24.412 19.5831 24.1904 19.8189 24.1313C19.8442 24.1249 19.8674 24.0912 19.88 24.0637C20.1832 23.4326 20.7181 22.9323 20.895 22.2294C20.9244 22.1112 21.0487 22.0225 21.1013 21.9064C21.1898 21.7122 21.255 21.5075 21.3308 21.3069C21.3729 21.193 21.3877 21.0536 21.4614 20.965C21.6804 20.7011 21.7836 20.3929 21.8825 20.0763C21.9183 19.9581 21.952 19.8315 22.0194 19.7301C22.2089 19.4367 22.2405 19.0927 22.3584 18.7781C22.4426 18.5523 22.4763 18.3306 22.5037 18.0942C22.5248 17.9211 22.6659 17.7649 22.7164 17.5918C22.7964 17.3195 22.9859 17.1338 23.1628 16.9206C23.0933 16.9459 23.0238 16.9712 22.9459 17.0008C22.9733 16.6187 23.0533 16.2789 23.3986 16.0404C23.346 15.9981 23.3102 15.9665 23.2702 15.9369C23.2302 15.9074 23.1902 15.8799 23.1144 15.8251C23.226 15.7322 23.3144 15.6562 23.405 15.5823C23.4765 15.5359 23.5502 15.4915 23.6218 15.4451C23.4787 15.4134 23.426 15.481 23.4134 15.5886C23.3649 15.5781 23.3144 15.5696 23.266 15.5591C23.3207 15.2425 23.4028 14.9427 23.4134 14.6388C23.4239 14.3095 23.4913 13.9886 23.5229 13.6657C23.5376 13.5073 23.6661 13.3385 23.4976 13.1865C23.4829 13.1738 23.5039 13.1084 23.5229 13.0725C23.5545 13.0071 23.6408 12.91 23.6239 12.8889C23.5102 12.7453 23.6976 12.6102 23.6134 12.4625C23.5481 12.3464 23.5734 12.2134 23.6261 12.0741C23.6703 11.958 23.6261 11.8102 23.6197 11.6751C23.6071 11.3902 23.546 11.0967 23.5987 10.8244C23.6366 10.626 23.664 10.4297 23.6787 10.2313C23.6955 10.0202 23.6366 9.8028 23.7356 9.59382C23.7629 9.53683 23.5966 9.45662 23.7187 9.38696C23.8429 9.31519 23.7313 9.25609 23.7334 9.19065C23.7356 9.11255 23.7861 9.03656 23.8219 8.93735C23.7819 8.92046 23.7398 8.90146 23.6829 8.87824C23.8282 8.61439 23.5924 8.26399 23.8829 8.02546C23.8682 7.90303 23.5671 7.85659 23.7777 7.65817C23.784 7.65184 23.7756 7.61595 23.765 7.60751C23.5081 7.40909 23.7735 7.4112 23.8408 7.37743C23.8071 7.16212 23.7692 6.97425 23.7545 6.78428C23.7503 6.74206 23.8324 6.69351 23.8829 6.63652C23.8556 6.56264 23.824 6.48032 23.7882 6.38744C23.9166 6.37266 24.0282 6.36 24.1377 6.34733C24.0051 6.25234 23.7777 6.36633 23.7524 6.1658C23.7292 5.99904 23.6197 5.78162 23.8345 5.6402C23.9419 5.64653 23.8008 5.8935 23.9988 5.80273C23.9946 5.87661 23.9882 5.94838 23.9819 6.05392C24.1293 5.88928 24.1293 5.88928 23.9861 5.80906ZM20.9518 45.7717C20.9413 45.8477 20.8107 45.8962 20.9265 46.0271C20.9371 45.9237 20.9455 45.8477 20.9518 45.7717C20.9939 45.5501 20.8213 45.5522 20.6865 45.5205C20.7939 45.3664 20.5896 45.2883 20.5959 45.1574C20.598 45.111 20.5644 45.0857 20.339 44.9611C20.4191 45.168 20.5391 45.3516 20.697 45.5142C20.7834 45.6007 20.8676 45.6852 20.9518 45.7717ZM23.2449 54.9497C23.2723 54.8568 23.2765 54.7977 23.3039 54.7534C23.327 54.7133 23.3755 54.6879 23.4134 54.6563C23.4028 54.6331 23.3902 54.612 23.3797 54.5887C23.2849 54.6204 23.1923 54.6499 23.068 54.6901C23.1354 54.7893 23.1796 54.8526 23.2449 54.9497ZM23.8261 16.4836C23.9209 16.4119 23.9672 16.3781 24.0177 16.3401C23.9524 16.2493 23.8998 16.1776 23.8472 16.1058C23.8282 16.1121 23.8093 16.1164 23.7903 16.1227C23.8008 16.2261 23.8114 16.3338 23.8261 16.4836ZM61.0276 36.1504C61.2171 36.1948 61.2276 36.1758 61.1561 35.9014C61.1118 35.99 61.076 36.0597 61.0276 36.1504ZM61.7099 38.8819C61.8151 38.789 61.872 38.7383 61.9562 38.6645C61.7857 38.6265 61.7309 38.6835 61.7099 38.8819ZM61.6046 38.1579C61.6256 38.16 61.6467 38.1621 61.6698 38.1642C61.6804 38.1093 61.6909 38.0544 61.7035 37.9996C61.6656 38.0017 61.6277 38.0038 61.5898 38.0059C61.594 38.0565 61.5983 38.1072 61.6046 38.1579ZM24.0767 14.4171C24.0746 14.3981 24.0746 14.3791 24.0725 14.3601C23.9819 14.3665 23.8935 14.3728 23.8029 14.3791C23.805 14.3981 23.805 14.4171 23.8071 14.434C23.8977 14.4298 23.9861 14.4235 24.0767 14.4171ZM23.7777 14.2187C23.7313 14.0942 23.7103 14.0372 23.685 13.9696C23.5671 14.0857 23.6071 14.1406 23.7777 14.2187ZM24.0451 4.68609C23.9567 4.88662 23.9567 4.88662 24.1209 4.9204C24.0998 4.85707 24.083 4.80219 24.0451 4.68609ZM24.2725 8.35264C24.1672 8.42441 24.0809 8.50251 24.2725 8.56584C24.2725 8.47929 24.2725 8.41597 24.2725 8.35264ZM23.0954 53.8542C23.1333 54.0484 23.1333 54.0484 23.2765 54.0082C23.226 53.9639 23.1839 53.928 23.0954 53.8542ZM23.9672 8.57217C23.8745 8.70726 23.9272 8.75792 24.0093 8.79381C24.0219 8.80014 24.043 8.78114 24.083 8.76637C24.0472 8.70937 24.0156 8.65238 23.9672 8.57217ZM23.3313 54.156C23.2681 54.3059 23.2681 54.3059 23.3481 54.3713C23.3418 54.3059 23.3376 54.2489 23.3313 54.156ZM23.0701 53.2695C23.0491 53.2673 23.028 53.2652 23.007 53.2631C23.007 53.318 23.007 53.3708 23.007 53.4257C23.0217 53.4257 23.0365 53.4257 23.0512 53.4257C23.0575 53.375 23.0638 53.3222 23.0701 53.2695ZM24.003 7.07769C24.0198 7.0798 24.0367 7.0798 24.0535 7.08191C24.0472 7.03969 24.043 6.99958 24.0367 6.95737C24.0261 6.95948 24.0135 6.95948 24.003 6.96159C24.003 6.99958 24.003 7.03969 24.003 7.07769ZM24.1883 7.93047C24.1756 7.94947 24.1609 7.96636 24.1483 7.98535C24.2072 8.01279 24.2683 8.04235 24.3273 8.06979C24.3357 8.05079 24.3462 8.0339 24.3546 8.0149C24.2999 7.98746 24.2451 7.96002 24.1883 7.93047ZM62.0299 40.5305C62.011 40.5473 61.9941 40.5642 61.9752 40.579C62.0089 40.617 62.0447 40.6571 62.0784 40.6951C62.0931 40.6824 62.1205 40.6592 62.1205 40.6571C62.091 40.6149 62.0594 40.5727 62.0299 40.5305ZM24.4283 9.42073C24.4094 9.43762 24.3946 9.44817 24.382 9.46084C24.4031 9.47984 24.422 9.50094 24.4452 9.51572C24.4494 9.51783 24.4704 9.49672 24.4831 9.48617C24.4662 9.46295 24.4473 9.44184 24.4283 9.42073ZM24.222 13.5284C24.2093 13.5411 24.1946 13.5517 24.182 13.5643C24.2241 13.6087 24.2641 13.6551 24.3062 13.6994C24.3188 13.6868 24.3315 13.6762 24.3462 13.6635C24.302 13.6192 24.262 13.5728 24.222 13.5284ZM62.1373 41.0434C62.1457 41.0582 62.1542 41.073 62.1647 41.0877C62.2047 41.0624 62.2447 41.0371 62.2868 41.0138C62.2784 40.9991 62.27 40.9864 62.2615 40.9716C62.2194 40.9949 62.1794 41.0181 62.1373 41.0434ZM24.0472 9.13154C24.0704 9.12099 24.0851 9.11255 24.1019 9.1041C24.0893 9.08088 24.0809 9.04922 24.0619 9.03445C24.0535 9.02811 24.0219 9.05344 24.0009 9.06189C24.0156 9.08511 24.0325 9.10833 24.0472 9.13154ZM24.0746 4.47923C24.0851 4.47078 24.0935 4.46234 24.104 4.4539C24.0746 4.41801 24.0472 4.38424 24.0177 4.34836C24.0072 4.3568 23.9946 4.36735 23.984 4.3758C24.0156 4.41168 24.0451 4.44545 24.0746 4.47923Z" fill="#6C6EA0"/>
<path d="M29.9178 46.3375C29.9052 46.3945 29.8926 46.4514 29.8821 46.5084C29.8631 46.5042 29.8441 46.5 29.8252 46.4958C29.8399 46.4388 29.8526 46.3818 29.8673 46.3269C29.8842 46.3311 29.901 46.3332 29.9178 46.3375Z" fill="#6C6EA0"/>
</g>
<defs>
<clipPath id="clip0_373_241">
<rect width="80" height="66" fill="white"/>
</clipPath>
</defs>
</svg>
